HIERARCHY
ROOT Hips
{
	OFFSET 0.000000 0.000000 0.000000
	CHANNELS 6 Xposition Yposition Zposition Xrotation Yrotation Zrotation
	JOINT LeftUpLeg_virtual
	{
		OFFSET 0.000000 0.000000 0.000000
		CHANNELS 3 Xrotation Yrotation Zrotation
		JOINT LeftUpLeg
		{
			OFFSET 11.394100 -6.187798 -0.413800
			CHANNELS 3 Xrotation Yrotation Zrotation
			JOINT LeftLeg
			{
				OFFSET 0.430247 -32.302673 3.732800
				CHANNELS 3 Xrotation Yrotation Zrotation
				JOINT LeftFoot
				{
					OFFSET -0.430247 -48.264931 -6.423300
					CHANNELS 3 Xrotation Yrotation Zrotation
					JOINT LeftToeBase
					{
						OFFSET 4.230900 -16.068199 23.438400
						CHANNELS 3 Xrotation Yrotation Zrotation
						JOINT LeftToe_End
						{
							OFFSET 4.510700 0.695400 19.974600
							CHANNELS 3 Xrotation Yrotation Zrotation
							End Site
							{
								OFFSET 0 0 0
							}
						}
					}
				}
			}
		}
	}
	JOINT RightUpLeg_virtual
	{
		OFFSET 0.000000 0.000000 0.000000
		CHANNELS 3 Xrotation Yrotation Zrotation
		JOINT RightUpLeg
		{
			OFFSET -11.333700 -6.187798 -0.413800
			CHANNELS 3 Xrotation Yrotation Zrotation
			JOINT RightLeg
			{
				OFFSET -0.430392 -32.302628 3.733000
				CHANNELS 3 Xrotation Yrotation Zrotation
				JOINT RightFoot
				{
					OFFSET 0.430392 -48.264973 -6.423500
					CHANNELS 3 Xrotation Yrotation Zrotation
					JOINT RightToeBase
					{
						OFFSET -4.230900 -16.068199 23.438400
						CHANNELS 3 Xrotation Yrotation Zrotation
						JOINT RightToe_End
						{
							OFFSET -4.510700 0.695400 19.974600
							CHANNELS 3 Xrotation Yrotation Zrotation
							End Site
							{
								OFFSET 0 0 0
							}
						}
					}
				}
			}
		}
	}
	JOINT Spine_virtual
	{
		OFFSET 0.000000 0.000000 0.000000
		CHANNELS 3 Xrotation Yrotation Zrotation
		JOINT Spine
		{
			OFFSET -0.002400 12.777504 0.315300
			CHANNELS 3 Xrotation Yrotation Zrotation
			JOINT Spine1
			{
				OFFSET -0.002067 5.816869 0.032633
				CHANNELS 3 Xrotation Yrotation Zrotation
				JOINT Spine1_split
				{
					OFFSET -0.002067 5.816869 0.032633
					CHANNELS 3 Xrotation Yrotation Zrotation
					JOINT Spine2
					{
						OFFSET -0.002067 5.816869 0.032633
						CHANNELS 3 Xrotation Yrotation Zrotation
						JOINT Neck_virtual
						{
							OFFSET 0.000000 0.000000 0.000000
							CHANNELS 3 Xrotation Yrotation Zrotation
							JOINT Neck
							{
								OFFSET -0.003700 21.199493 -0.826900
								CHANNELS 3 Xrotation Yrotation Zrotation
								JOINT Head
								{
									OFFSET 0.000000 20.442200 4.834800
									CHANNELS 3 Xrotation Yrotation Zrotation
									JOINT HeadTop_End
									{
										OFFSET 0.000000 34.668396 4.968400
										CHANNELS 3 Xrotation Yrotation Zrotation
										End Site
										{
											OFFSET 0 0 0
										}
									}
								}
							}
						}
						JOINT LeftShoulder_virtual
						{
							OFFSET 0.000000 0.000000 0.000000
							CHANNELS 3 Xrotation Yrotation Zrotation
							JOINT LeftShoulder
							{
								OFFSET 3.288150 8.794197 -1.372250
								CHANNELS 3 Xrotation Yrotation Zrotation
								JOINT LeftShoulder_split
								{
									OFFSET 3.288150 8.794197 -1.372250
									CHANNELS 3 Xrotation Yrotation Zrotation
									JOINT LeftArm
									{
										OFFSET 11.953299 -2.279007 -0.146200
										CHANNELS 3 Xrotation Yrotation Zrotation
										JOINT LeftForeArm
										{
											OFFSET 18.448900 0.000000 0.000000
											CHANNELS 3 Xrotation Yrotation Zrotation
											JOINT LeftHand
											{
												OFFSET 29.527798 0.000000 0.000000
												CHANNELS 3 Xrotation Yrotation Zrotation
												End Site
												{
													OFFSET 0 0 0
												}
											}
										}
									}
								}
							}
						}
						JOINT RightShoulder_virtual
						{
							OFFSET 0.000000 0.000000 0.000000
							CHANNELS 3 Xrotation Yrotation Zrotation
							JOINT RightShoulder
							{
								OFFSET -3.249400 8.794197 -1.372250
								CHANNELS 3 Xrotation Yrotation Zrotation
								JOINT RightShoulder_split
								{
									OFFSET -3.249400 8.794197 -1.372250
									CHANNELS 3 Xrotation Yrotation Zrotation
									JOINT RightArm
									{
										OFFSET -11.953299 -2.279007 -0.146200
										CHANNELS 3 Xrotation Yrotation Zrotation
										JOINT RightForeArm
										{
											OFFSET -18.448900 0.000000 0.000000
											CHANNELS 3 Xrotation Yrotation Zrotation
											JOINT RightHand
											{
												OFFSET -29.527802 0.000000 0.000000
												CHANNELS 3 Xrotation Yrotation Zrotation
												End Site
												{
													OFFSET 0 0 0
												}
											}
										}
									}
								}
							}
						}
					}
				}
			}
		}
	}
}
MOTION
Frames: 10
Frame Time: 0.03333333
-1.616856 95.761650 15.041119 0.000000 0.000000 0.000000 174.574731 -61.939871 176.126796 -2.909323 15.385133 15.677193 22.646686 17.148903 2.467873 -9.925855 5.301187 -25.344932 -8.296727 2.649344 -0.499041 0.000000 0.000000 0.000000 173.747950 -61.211950 174.841259 -33.135901 -18.999696 -18.151590 24.145485 -12.568801 -0.470748 8.793840 0.148734 8.736007 -0.956108 -8.096433 6.609811 0.000000 0.000000 0.000000 174.102492 -64.028174 174.369429 9.286580 -0.762252 -0.295012 -0.256924 -1.319902 2.181209 0.816917 -0.532428 -0.066657 0.000000 0.000000 0.000000 -2.328010 -1.231931 2.525770 -3.893235 21.836475 4.428165 2.510045 23.341350 -7.797008 0.000000 0.000000 0.000000 -2.142418 -0.804095 2.199908 0.972582 1.751322 -8.212385 1.614548 -2.802081 -2.034325 -0.786509 -7.826577 -58.429523 5.150931 -16.805983 -6.000719 0.000000 0.000000 0.000000 -1.735608 -1.155403 1.769061 1.740320 -2.102404 18.986278 -2.778669 -1.849728 -0.580253 16.743826 27.541951 45.049493 16.469253 26.834324 -5.987447 0.000000 0.000000 0.000000 
-1.690215 95.110344 13.407162 0.000000 0.000000 0.000000 175.226454 -58.418103 177.087435 0.383267 17.248427 16.185854 22.017069 19.429115 2.250658 -9.467639 6.485981 -26.490839 -8.672389 3.077091 -0.506870 0.000000 0.000000 0.000000 174.577900 -57.855254 175.925155 -35.430380 -19.756075 -17.770417 25.762837 -11.821986 -0.386434 9.485216 1.563873 7.962226 -1.919639 -8.196062 6.481037 0.000000 0.000000 0.000000 175.281738 -60.208227 175.899542 9.520765 -1.254580 -0.424902 -0.176087 -1.689909 2.721193 0.919554 -0.286976 -0.146499 0.000000 0.000000 0.000000 -2.368249 -1.603027 3.001631 -4.044983 19.220530 3.312552 1.882254 19.373357 -6.054762 0.000000 0.000000 0.000000 -2.067016 -1.162140 2.711819 0.985528 2.211106 -9.114170 1.324335 -2.780745 -1.826163 0.478713 -8.317307 -58.751662 4.445711 -16.845973 -5.960176 0.000000 0.000000 0.000000 -1.621438 -1.478328 2.285257 1.739119 -2.412158 18.373402 -2.869252 -1.720179 -0.543256 16.028079 28.549735 45.286097 16.194423 26.611580 -6.224192 0.000000 0.000000 0.000000 
-1.768931 94.409752 11.605251 0.000000 0.000000 0.000000 175.927969 -54.869006 178.022652 2.657816 18.600533 17.017234 23.402806 21.044463 1.806565 -8.921959 7.134368 -26.874481 -8.274942 3.796214 -1.702832 0.000000 0.000000 0.000000 175.465647 -54.485061 176.958836 -36.770067 -20.643333 -16.809234 27.026285 -10.817821 -0.483846 9.251339 2.696973 6.557378 -2.636430 -8.223106 6.230376 0.000000 0.000000 0.000000 176.418431 -56.429414 177.242152 9.950045 -1.806002 -0.529256 -0.144258 -2.053180 3.140552 0.965627 -0.014552 -0.289643 0.000000 0.000000 0.000000 -2.433697 -1.979615 3.354408 -4.078358 16.253847 2.494883 1.403530 15.220988 -4.474463 0.000000 0.000000 0.000000 -2.032746 -1.524998 3.105873 1.002076 2.556442 -9.781266 1.178579 -2.839033 -1.442234 1.993109 -8.739364 -59.260101 3.826505 -17.139661 -6.029710 0.000000 0.000000 0.000000 -1.575341 -1.806585 2.707823 1.757901 -2.602681 17.937767 -3.138781 -1.513039 -0.474190 15.408482 29.548375 45.503414 15.792263 26.419076 -6.183629 0.000000 0.000000 0.000000 
-1.849870 93.818703 9.496822 0.000000 0.000000 0.000000 176.649825 -51.385805 178.863366 3.253426 18.761558 18.258257 26.933203 21.355059 1.316378 -7.293905 6.644557 -27.140243 -8.137642 4.765223 -4.113498 0.000000 0.000000 0.000000 176.435316 -51.149323 177.924297 -36.987308 -21.452535 -15.185864 27.780478 -9.742664 -0.794947 8.062741 3.321880 4.436073 -2.677969 -8.195401 5.943573 0.000000 0.000000 0.000000 177.434805 -52.701726 178.280696 10.522122 -2.304409 -0.561626 -0.209688 -2.337183 3.314248 0.983675 0.387956 -0.261767 0.000000 0.000000 0.000000 -2.510603 -2.279564 3.461229 -3.926139 13.069146 2.082099 1.077680 11.076850 -3.154959 0.000000 0.000000 0.000000 -2.072269 -1.817376 3.263602 1.002492 2.792693 -10.084502 1.080501 -2.828767 -1.023457 3.509997 -8.853051 -59.871826 3.288164 -17.628001 -6.231716 0.000000 0.000000 0.000000 -1.619409 -2.076852 2.906161 1.767719 -2.667207 17.713148 -3.386315 -1.326266 -0.384046 14.880851 30.346080 45.681770 15.367473 26.315517 -5.958460 0.000000 0.000000 0.000000 
-1.918340 93.516281 7.122837 0.000000 0.000000 0.000000 177.504992 -47.949475 179.637418 2.315445 17.523446 19.502970 31.933119 20.674383 0.994848 -4.207309 5.010017 -26.800732 -9.163167 5.934801 -7.484559 0.000000 0.000000 0.000000 177.392102 -47.685116 178.665345 -36.263114 -21.829230 -12.887475 28.282307 -8.510370 -1.291404 6.302796 3.510076 2.026875 -2.357939 -8.154523 5.458844 0.000000 0.000000 0.000000 178.322278 -49.025858 178.948019 11.156472 -2.648245 -0.479401 -0.391565 -2.510194 3.194365 0.903619 0.688963 -0.196697 0.000000 0.000000 0.000000 -2.596784 -2.443247 3.292812 -3.553921 9.841142 2.099335 0.863097 7.151036 -2.156562 0.000000 0.000000 0.000000 -2.166893 -1.982629 3.146539 0.991666 2.922225 -10.012208 0.947080 -2.637583 -0.674000 4.774691 -8.466454 -60.573355 2.861978 -18.135665 -6.578603 0.000000 0.000000 0.000000 -1.748699 -2.231935 2.828289 1.728641 -2.663070 17.652704 -3.480705 -1.162418 -0.351250 14.426179 30.887065 45.764132 15.009978 26.365449 -5.687172 0.000000 0.000000 0.000000 
-2.056143 93.652481 4.513908 0.000000 0.000000 0.000000 178.437941 -44.466724 -179.794840 0.503695 15.551728 20.190196 37.128266 19.860715 0.901619 -0.830377 3.015779 -24.624661 -11.339780 7.269219 -11.382488 0.000000 0.000000 0.000000 178.323043 -44.140641 179.128528 -34.910019 -21.533432 -10.067817 28.787960 -7.054322 -1.897273 4.573411 3.456478 -0.077239 -2.249169 -8.154247 4.636452 0.000000 0.000000 0.000000 179.111698 -45.308545 179.353418 11.770923 -2.749786 -0.283340 -0.644302 -2.533730 2.818319 0.787848 0.809914 -0.127848 0.000000 0.000000 0.000000 -2.689194 -2.435774 2.882872 -2.935877 6.681269 2.470920 0.746300 3.553912 -1.524716 0.000000 0.000000 0.000000 -2.290506 -1.982003 2.782573 0.970476 2.933580 -9.667515 0.833196 -2.281013 -0.440729 5.789307 -7.492330 -61.318877 2.606660 -18.345033 -7.033155 0.000000 0.000000 0.000000 -1.921198 -2.229133 2.501706 1.643666 -2.684065 17.696713 -3.357471 -1.038430 -0.442929 14.050183 31.363648 45.608011 14.765189 26.444834 -5.437613 0.000000 0.000000 0.000000 
-2.259481 94.222351 1.626545 0.000000 0.000000 0.000000 179.317915 -40.736075 -179.561124 -1.692161 13.470690 19.855193 41.758957 19.517696 0.925681 1.471557 1.494725 -20.119825 -13.759185 8.593329 -15.210247 0.000000 0.000000 0.000000 179.149728 -40.425513 179.280171 -33.226384 -20.475813 -6.956373 29.194472 -5.250926 -2.536286 3.195656 3.345302 -1.257025 -2.909605 -8.202916 3.432402 0.000000 0.000000 0.000000 179.829592 -41.521277 179.589825 12.311070 -2.575042 0.008211 -0.913122 -2.384771 2.286950 0.644513 0.829752 -0.020311 0.000000 0.000000 0.000000 -2.777131 -2.243723 2.318640 -2.100752 3.702671 3.030751 0.708413 0.360561 -1.216906 0.000000 0.000000 0.000000 -2.396284 -1.818901 2.272203 0.948117 2.875427 -9.212925 0.716641 -1.814135 -0.226474 6.707049 -6.003961 -62.115106 2.562701 -18.025592 -7.543270 0.000000 0.000000 0.000000 -2.095153 -2.053717 2.024797 1.539973 -2.806866 17.721660 -3.148428 -1.092280 -0.587882 13.844386 31.987251 45.079313 14.653305 26.386786 -5.244834 0.000000 0.000000 0.000000 
-2.587294 95.108727 -1.496559 0.000000 0.000000 0.000000 -179.925679 -36.780114 -179.620533 -4.356195 11.796845 18.645394 45.841928 19.385648 0.789915 2.202043 0.482497 -14.309043 -15.440034 9.593720 -18.193162 0.000000 0.000000 0.000000 179.775114 -36.568450 179.107600 -31.326171 -18.670573 -3.811798 29.372662 -3.097007 -3.136148 2.001769 3.308980 -1.539746 -4.063051 -8.202275 2.052950 0.000000 0.000000 0.000000 -179.554076 -37.669743 179.719011 12.699584 -2.175756 0.331813 -1.134818 -2.076802 1.716239 0.501464 0.684582 -0.012246 0.000000 0.000000 0.000000 -2.851622 -1.901506 1.720368 -1.152172 0.989462 3.614915 0.748886 -2.397396 -1.190780 0.000000 0.000000 0.000000 -2.454634 -1.510021 1.727464 0.928615 2.775241 -8.795048 0.727097 -1.414199 -0.025627 7.635702 -4.253180 -62.974774 2.798940 -17.232412 -8.023554 0.000000 0.000000 0.000000 -2.232155 -1.724199 1.509180 1.447392 -3.138492 17.699925 -2.959683 -1.206215 -0.687255 13.883399 32.757283 44.217989 14.618565 26.076667 -5.089274 0.000000 0.000000 0.000000 
-2.975924 96.165848 -4.865669 0.000000 0.000000 0.000000 -179.457825 -32.618132 -179.888072 -7.848786 10.785779 16.878779 49.629828 18.680940 0.494467 1.949962 -0.614020 -9.099105 -16.417837 9.984594 -19.253228 0.000000 0.000000 0.000000 -179.838403 -32.614064 178.820541 -29.220253 -16.307461 -0.856220 29.145811 -0.927242 -3.575324 0.696088 3.240662 -1.700889 -4.362105 -8.068981 1.024474 0.000000 0.000000 0.000000 -179.123173 -33.791777 179.716880 12.912495 -1.640387 0.585207 -1.280475 -1.642112 1.213588 0.527593 0.577721 -0.044769 0.000000 0.000000 0.000000 -2.880883 -1.455958 1.176603 -0.201578 -1.404093 4.053192 0.852898 -4.687486 -1.335877 0.000000 0.000000 0.000000 -2.475051 -1.101569 1.235653 0.904153 2.710373 -8.506401 0.813288 -1.102733 0.308475 8.754796 -2.444127 -63.874058 3.313799 -16.236405 -8.376921 0.000000 0.000000 0.000000 -2.299241 -1.285699 1.048738 1.405276 -3.713239 17.627269 -2.941103 -1.350370 -0.724464 14.247403 33.547970 43.233550 14.620507 25.522069 -4.927061 0.000000 0.000000 0.000000 
-3.414372 97.167397 -8.399429 0.000000 0.000000 0.000000 -179.305020 -28.539635 179.797258 -12.182091 10.127195 14.662266 52.837824 17.041445 0.306813 1.695546 -2.020758 -5.491430 -17.674045 9.692893 -17.546421 0.000000 0.000000 0.000000 -179.732371 -28.521878 178.475220 -27.093337 -13.557231 1.676879 28.385091 1.092221 -3.798717 -0.835122 2.989126 -2.194309 -3.207700 -7.802194 0.559607 0.000000 0.000000 0.000000 -178.872068 -29.984360 179.683890 12.900133 -1.081335 0.682146 -1.335784 -1.137736 0.845731 0.625520 0.620926 -0.017735 0.000000 0.000000 0.000000 -2.838220 -0.965746 0.756221 0.626308 -3.428886 4.271441 0.990100 -6.461484 -1.552542 0.000000 0.000000 0.000000 -2.454244 -0.645065 0.863824 0.877896 2.749657 -8.345751 0.987763 -0.886233 0.644981 9.924774 -0.807965 -64.817744 4.058370 -15.361545 -8.557301 0.000000 0.000000 0.000000 -2.297620 -0.796515 0.702341 1.417303 -4.512145 17.533253 -3.016843 -1.407413 -0.697285 14.837109 34.032988 42.453529 14.632263 24.952720 -4.743426 0.000000 0.000000 0.000000 
